# xmcd
#
# Track frame offsets: 
#        150
#        18395
#        35640
#        53377
#        73445
#        91205
#        112067
#        130417
#        149722
#        170277
#        187040
#        207212
#        227690
#        248065
#        270807
#        291755
#        311335
#
# Disc length: 4413 seconds
#
# Revision: 11
# Processed by: cddbd v1.5.2PL0 Copyright (c) Steve Scherf et al.
# Submitted via: ExactAudioCopy v0.99pb5
#
DISCID=f6113b11
DTITLE=Various Artist - 연가(戀歌) CD1
DYEAR=2001
DGENRE=Ballad
TTITLE0=김민우 - 사랑일뿐야
TTITLE1=김민우 - 입영열차안에서
TTITLE2=변진섭 - 홀로 된다는 것
TTITLE3=윤상 - 이별의 그늘
TTITLE4=윤상 - 가려진 시간 사이로
TTITLE5=이신 - 애상
TTITLE6=이상우 - 비창
TTITLE7=전유나 - 너를 사랑하고도
TTITLE8=나미 - 슬픈 인연
TTITLE9=신성우 - 서시
TTITLE10=김돈규 - 나만의 슬픔
TTITLE11=부활 - 사랑할수록
TTITLE12=이지훈 - 왜 하늘은
TTITLE13=솔리드 - 이밤의 끝을 잡고
TTITLE14=박상민 - 멀어져 간 사람아
TTITLE15=조장혁 - Change
TTITLE16=김태영 - 혼자만의 사랑
EXTD=YEAR: 2001
EXTT0=
EXTT1=
EXTT2=
EXTT3=
EXTT4=
EXTT5=
EXTT6=
EXTT7=
EXTT8=
EXTT9=
EXTT10=
EXTT11=
EXTT12=
EXTT13=
EXTT14=
EXTT15=
EXTT16=
PLAYORDER=
